<?xml version="1.0" encoding="utf-8"?>
<!-- Generator: Adobe Illustrator 15.0.2, SVG Export Plug-In . SVG Version: 6.00 Build 0)  -->
<!DOCTYPE svg PUBLIC "-//W3C//DTD SVG 1.1//EN" "http://www.w3.org/Graphics/SVG/1.1/DTD/svg11.dtd">
<svg version="1.1" id="Layer_1" xmlns="http://www.w3.org/2000/svg" xmlns:xlink="http://www.w3.org/1999/xlink" x="0px" y="0px"
	 width="512px" height="512px" viewBox="0 0 512 512" enable-background="new 0 0 512 512" xml:space="preserve">
<path d="M302.325,35.962H227.05L200.994,134.4L121.05,82.193c-20.118,15.638-37.443,34.694-51.112,56.294L256,256l186.062-117.513
	c-13.662-21.6-30.987-40.656-51.112-56.294L311,134.4l-31.838-68.875l37.938,3.199L302.325,35.962z M91.263,175.119L60.2,155.5
	C44.706,185.625,35.962,219.794,35.962,256l1.013,21.225L91.263,175.119z M110.9,187.519L43.675,313.95
	c4.476,16.438,10.807,32.1,18.757,46.774l81.125-152.581L110.9,187.519z M163.193,220.55L76.588,383.425
	c8.894,12.5,19.062,24.025,30.312,34.4l92.675-174.3L163.193,220.55z M219.213,255.932L125.119,432.9
	C161.7,460,206.975,476.037,256,476.037S350.3,460,386.875,432.9l-94.088-176.969L256,279.162L219.213,255.932z M312.425,243.525
	l92.675,174.3c11.25-10.375,21.426-21.9,30.312-34.4L348.8,220.55L312.425,243.525z M368.45,208.144l81.125,152.581
	c7.95-14.675,14.274-30.337,18.75-46.774L401.1,187.519L368.45,208.144z M420.737,175.119l54.288,102.105L476.037,256
	c0-36.206-8.737-70.375-24.237-100.5L420.737,175.119z M256,0c141.388,0,256,114.612,256,256S397.388,512,256,512S0,397.388,0,256
	S114.612,0,256,0z"/>
</svg>
